<svg id="svg" xmlns="http://www.w3.org/2000/svg" xmlns:xlink="http://www.w3.org/1999/xlink" width="400" height="400" viewBox="0, 0, 400,400"><g id="svgg"><path id="path0" d="M232.315 33.613 C 227.804 33.709,223.955 34.044,223.761 34.357 C 223.568 34.670,221.391 34.985,218.923 35.057 C 216.078 35.140,214.330 35.466,214.144 35.950 C 213.983 36.369,212.352 36.891,210.520 37.109 C 203.571 37.938,201.875 38.273,201.875 38.816 C 201.875 39.123,200.469 39.375,198.750 39.375 C 196.389 39.375,195.625 39.604,195.625 40.313 C 195.625 40.967,194.965 41.250,193.438 41.250 C 192.234 41.250,191.250 41.531,191.250 41.875 C 191.250 42.219,190.441 42.500,189.452 42.500 C 188.462 42.500,187.303 42.922,186.875 43.438 C 186.447 43.953,185.428 44.375,184.611 44.375 C 183.794 44.375,183.125 44.656,183.125 45.000 C 183.125 45.344,182.422 45.625,181.563 45.625 C 180.590 45.625,180.000 45.979,180.000 46.563 C 180.000 47.146,179.410 47.500,178.438 47.500 C 177.578 47.500,176.875 47.781,176.875 48.125 C 176.875 48.469,176.304 48.750,175.605 48.750 C 174.907 48.750,174.174 49.172,173.976 49.688 C 173.778 50.203,173.084 50.625,172.433 50.625 C 171.782 50.625,171.250 50.876,171.250 51.182 C 171.250 51.489,170.547 51.916,169.688 52.132 C 168.828 52.347,168.125 52.800,168.125 53.137 C 168.125 53.474,167.703 53.750,167.188 53.750 C 166.672 53.750,166.250 53.987,166.250 54.277 C 166.250 54.566,165.266 55.333,164.063 55.981 C 162.859 56.629,161.875 57.377,161.875 57.642 C 161.875 57.908,161.453 58.125,160.938 58.125 C 160.260 58.125,160.000 58.819,160.000 60.625 C 160.000 63.319,163.855 64.581,164.774 62.188 C 164.972 61.672,165.636 61.250,166.250 61.250 C 166.864 61.250,167.528 60.828,167.726 60.313 C 167.924 59.797,168.657 59.375,169.355 59.375 C 170.054 59.375,170.625 59.094,170.625 58.750 C 170.625 58.406,171.047 58.125,171.563 58.125 C 172.078 58.125,172.500 57.906,172.500 57.638 C 172.500 57.370,173.906 56.604,175.625 55.938 C 177.344 55.271,178.750 54.505,178.750 54.237 C 178.750 53.969,179.333 53.750,180.045 53.750 C 180.757 53.750,181.761 53.328,182.277 52.813 C 182.792 52.297,183.897 51.875,184.732 51.875 C 185.567 51.875,186.250 51.594,186.250 51.250 C 186.250 50.906,186.919 50.625,187.736 50.625 C 188.553 50.625,189.572 50.203,190.000 49.688 C 190.428 49.172,191.604 48.750,192.613 48.750 C 193.678 48.750,194.287 48.487,194.063 48.125 C 193.832 47.752,194.592 47.500,195.945 47.500 C 197.193 47.500,198.636 47.078,199.152 46.563 C 199.667 46.047,201.194 45.625,202.545 45.625 C 203.895 45.625,205.000 45.344,205.000 45.000 C 205.000 44.656,206.556 44.375,208.457 44.375 C 210.954 44.375,212.014 44.114,212.274 43.438 C 212.541 42.741,213.648 42.500,216.577 42.500 C 218.746 42.500,220.616 42.215,220.732 41.867 C 221.023 40.993,255.850 40.988,256.141 41.862 C 256.258 42.213,258.229 42.509,260.521 42.520 C 263.190 42.533,265.124 42.870,265.901 43.457 C 266.568 43.962,268.342 44.375,269.844 44.375 C 271.505 44.375,272.422 44.620,272.188 45.000 C 271.951 45.382,272.925 45.625,274.695 45.625 C 276.434 45.625,277.963 45.999,278.527 46.563 C 279.042 47.078,280.288 47.500,281.295 47.500 C 282.301 47.500,283.125 47.781,283.125 48.125 C 283.125 48.469,283.978 48.750,285.020 48.750 C 286.127 48.750,287.064 49.139,287.274 49.688 C 287.479 50.222,288.411 50.625,289.442 50.625 C 290.436 50.625,291.250 50.906,291.250 51.250 C 291.250 51.594,291.792 51.875,292.455 51.875 C 293.118 51.875,294.083 52.297,294.598 52.813 C 295.114 53.328,295.989 53.750,296.544 53.750 C 297.099 53.750,298.156 54.313,298.894 55.000 C 299.632 55.688,300.754 56.250,301.387 56.250 C 302.021 56.250,302.701 56.672,302.899 57.188 C 303.097 57.703,303.655 58.125,304.140 58.125 C 304.625 58.125,305.978 59.109,307.146 60.313 C 308.315 61.516,309.575 62.500,309.948 62.500 C 310.320 62.500,311.750 63.625,313.125 65.000 C 314.500 66.375,315.906 67.500,316.250 67.500 C 316.594 67.500,316.875 67.801,316.875 68.170 C 316.875 69.035,318.465 70.625,319.330 70.625 C 319.699 70.625,320.000 70.926,320.000 71.295 C 320.000 71.663,320.352 72.356,320.781 72.835 C 322.636 74.904,323.125 75.611,323.125 76.224 C 323.125 76.582,323.446 76.875,323.837 76.875 C 324.692 76.875,326.202 78.749,326.230 79.844 C 326.241 80.273,326.823 81.198,327.523 81.898 C 328.223 82.598,328.628 83.442,328.423 83.773 C 328.219 84.104,328.349 84.375,328.713 84.375 C 329.077 84.375,329.375 84.797,329.375 85.313 C 329.375 85.828,329.656 86.250,330.000 86.250 C 330.344 86.250,330.625 86.953,330.625 87.813 C 330.625 88.672,330.894 89.375,331.222 89.375 C 331.550 89.375,332.003 90.359,332.229 91.563 C 332.454 92.766,332.889 93.750,333.195 93.750 C 333.500 93.750,333.750 94.399,333.750 95.193 C 333.750 95.987,334.163 97.182,334.668 97.849 C 335.172 98.517,335.594 99.977,335.605 101.094 C 335.616 102.211,335.906 103.125,336.250 103.125 C 336.594 103.125,336.875 104.196,336.875 105.506 C 336.875 106.815,337.288 108.432,337.793 109.099 C 339.150 110.894,339.167 130.743,337.813 132.098 C 337.297 132.614,336.875 134.040,336.875 135.268 C 336.875 136.496,336.594 137.500,336.250 137.500 C 335.906 137.500,335.625 138.203,335.625 139.063 C 335.625 140.035,335.271 140.625,334.688 140.625 C 334.033 140.625,333.750 141.285,333.750 142.813 C 333.750 144.340,334.033 145.000,334.688 145.000 C 335.203 145.000,335.625 144.719,335.625 144.375 C 335.625 144.031,336.105 143.750,336.692 143.750 C 337.859 143.750,341.844 139.536,341.863 138.281 C 341.870 137.852,342.156 137.500,342.500 137.500 C 342.844 137.500,343.125 136.827,343.125 136.004 C 343.125 135.182,343.547 134.347,344.063 134.149 C 344.705 133.902,345.000 132.898,345.000 130.957 C 345.000 129.399,345.281 128.125,345.625 128.125 C 346.014 128.125,346.250 124.583,346.250 118.750 C 346.250 112.917,346.014 109.375,345.625 109.375 C 345.281 109.375,345.000 108.023,345.000 106.369 C 345.000 104.694,344.594 102.827,344.082 102.151 C 343.578 101.483,343.156 100.023,343.145 98.906 C 343.134 97.789,342.844 96.875,342.500 96.875 C 342.156 96.875,341.875 96.011,341.875 94.955 C 341.875 93.900,341.453 92.614,340.938 92.098 C 340.422 91.583,340.000 90.478,340.000 89.643 C 340.000 88.808,339.719 88.125,339.375 88.125 C 339.031 88.125,338.750 87.413,338.750 86.543 C 338.750 85.673,338.328 84.799,337.813 84.601 C 337.297 84.403,336.875 83.568,336.875 82.746 C 336.875 81.923,336.624 81.250,336.318 81.250 C 336.011 81.250,335.584 80.547,335.368 79.688 C 335.153 78.828,334.700 78.125,334.363 78.125 C 334.026 78.125,333.750 77.703,333.750 77.188 C 333.750 76.672,333.469 76.250,333.125 76.250 C 332.781 76.250,332.500 75.819,332.500 75.293 C 332.500 74.766,332.078 74.174,331.563 73.976 C 331.047 73.778,330.625 73.224,330.625 72.746 C 330.625 72.267,330.363 71.875,330.042 71.875 C 329.722 71.875,329.283 71.319,329.067 70.640 C 328.534 68.960,315.815 56.250,314.667 56.250 C 314.163 56.250,313.750 55.969,313.750 55.625 C 313.750 55.281,313.456 55.000,313.097 55.000 C 312.737 55.000,311.740 54.297,310.881 53.438 C 310.021 52.578,308.892 51.875,308.372 51.875 C 307.852 51.875,307.600 51.594,307.813 51.250 C 308.025 50.906,307.760 50.625,307.224 50.625 C 306.688 50.625,306.250 50.349,306.250 50.012 C 306.250 49.675,305.547 49.222,304.688 49.007 C 303.828 48.791,303.125 48.364,303.125 48.057 C 303.125 47.751,302.452 47.500,301.629 47.500 C 300.807 47.500,299.972 47.078,299.774 46.563 C 299.576 46.047,298.843 45.625,298.145 45.625 C 297.446 45.625,296.875 45.344,296.875 45.000 C 296.875 44.656,296.206 44.375,295.389 44.375 C 294.572 44.375,293.553 43.953,293.125 43.438 C 292.697 42.922,291.678 42.500,290.861 42.500 C 290.044 42.500,289.375 42.219,289.375 41.875 C 289.375 41.531,288.551 41.250,287.545 41.250 C 286.538 41.250,285.292 40.828,284.777 40.313 C 284.261 39.797,282.835 39.375,281.607 39.375 C 280.379 39.375,279.375 39.123,279.375 38.816 C 279.375 38.508,278.320 38.119,277.031 37.951 C 271.815 37.273,266.528 36.144,265.969 35.589 C 265.642 35.265,263.345 35.000,260.865 35.000 C 258.384 35.000,256.260 34.742,256.146 34.426 C 255.904 33.760,244.159 33.360,232.315 33.613 M275.000 51.250 C 275.000 51.594,274.578 51.875,274.063 51.875 C 273.547 51.875,273.125 52.297,273.125 52.813 C 273.125 53.328,272.844 53.750,272.500 53.750 C 271.029 53.750,271.776 62.328,273.281 62.731 C 276.091 63.484,277.030 63.061,280.549 59.453 L 284.131 55.780 282.314 54.090 C 281.314 53.161,279.541 52.246,278.373 52.056 C 277.205 51.866,276.250 51.467,276.250 51.168 C 276.250 50.869,275.969 50.625,275.625 50.625 C 275.281 50.625,275.000 50.906,275.000 51.250 M223.594 52.284 C 222.992 52.453,222.500 52.852,222.500 53.171 C 222.500 53.489,220.695 53.750,218.490 53.750 C 216.284 53.750,214.385 54.022,214.271 54.355 C 214.156 54.688,213.148 55.029,212.031 55.113 C 210.914 55.197,210.000 55.487,210.000 55.758 C 210.000 56.029,209.297 56.250,208.438 56.250 C 207.465 56.250,206.875 56.604,206.875 57.188 C 206.875 57.703,206.453 58.125,205.938 58.125 C 205.354 58.125,205.000 58.715,205.000 59.688 C 205.000 61.326,207.749 62.067,208.250 60.564 C 208.376 60.186,209.800 59.728,211.414 59.546 C 213.029 59.364,214.198 58.970,214.013 58.670 C 213.828 58.370,215.216 58.125,217.099 58.125 C 219.281 58.125,220.615 57.842,220.781 57.344 C 221.207 56.064,260.533 55.908,261.023 57.184 C 261.426 58.235,267.500 58.573,267.500 57.545 C 267.500 56.285,265.426 55.000,263.393 55.000 C 262.214 55.000,261.250 54.719,261.250 54.375 C 261.250 54.019,259.392 53.750,256.927 53.750 C 254.024 53.750,252.519 53.493,252.344 52.969 C 252.083 52.183,226.152 51.566,223.594 52.284 M279.688 55.625 C 279.900 55.969,279.635 56.250,279.099 56.250 C 278.563 56.250,278.125 56.672,278.125 57.188 C 278.125 57.703,277.703 58.125,277.188 58.125 C 276.672 58.125,276.250 58.547,276.250 59.063 C 276.250 59.578,275.969 60.000,275.625 60.000 C 275.281 60.000,275.000 58.875,275.000 57.500 C 275.000 54.986,278.442 53.609,279.688 55.625 M286.042 64.792 C 285.005 65.829,285.670 67.500,287.121 67.500 C 287.943 67.500,288.778 67.922,288.976 68.438 C 289.174 68.953,289.907 69.375,290.605 69.375 C 291.304 69.375,291.875 69.656,291.875 70.000 C 291.875 70.344,292.578 70.625,293.438 70.625 C 294.410 70.625,295.000 70.979,295.000 71.563 C 295.000 72.082,295.555 72.500,296.243 72.500 C 297.482 72.500,299.295 73.708,301.166 75.781 C 301.709 76.383,302.534 76.875,303.000 76.875 C 303.986 76.875,308.750 81.515,308.750 82.476 C 308.750 82.833,309.453 83.125,310.313 83.125 C 312.629 83.125,312.334 80.893,309.688 78.397 C 308.484 77.262,307.500 76.081,307.500 75.773 C 307.500 75.464,306.797 74.835,305.938 74.375 C 305.078 73.915,304.375 73.305,304.375 73.019 C 304.375 72.734,303.852 72.500,303.213 72.500 C 302.573 72.500,301.522 71.797,300.877 70.938 C 300.231 70.078,299.097 69.375,298.356 69.375 C 297.615 69.375,296.847 68.953,296.649 68.438 C 296.451 67.922,295.577 67.500,294.707 67.500 C 293.837 67.500,293.125 67.219,293.125 66.875 C 293.125 66.531,292.413 66.250,291.543 66.250 C 290.673 66.250,289.799 65.828,289.601 65.313 C 289.239 64.370,286.818 64.015,286.042 64.792 M239.375 66.875 C 239.375 67.219,238.930 67.500,238.385 67.500 C 237.841 67.500,237.513 67.852,237.655 68.281 C 237.841 68.841,240.245 69.112,246.145 69.237 C 250.931 69.338,254.375 69.665,254.375 70.018 C 254.375 70.356,256.424 70.625,258.996 70.625 C 262.526 70.625,263.701 70.846,263.976 71.563 C 264.236 72.239,265.296 72.500,267.793 72.500 C 269.694 72.500,271.250 72.781,271.250 73.125 C 271.250 73.469,272.797 73.750,274.688 73.750 C 276.578 73.750,278.125 73.609,278.125 73.438 C 278.125 72.413,275.343 70.625,273.750 70.625 C 272.719 70.625,271.875 70.344,271.875 70.000 C 271.875 69.656,270.589 69.375,269.018 69.375 C 267.312 69.375,265.783 68.997,265.223 68.438 C 264.579 67.794,262.978 67.497,260.112 67.490 C 257.186 67.484,256.218 67.300,256.875 66.875 C 257.504 66.469,254.777 66.266,248.594 66.260 C 242.858 66.254,239.375 66.486,239.375 66.875 M112.500 74.375 C 111.984 74.708,110.257 74.985,108.661 74.990 C 106.664 74.997,105.646 75.293,105.399 75.938 C 105.173 76.526,104.217 76.875,102.832 76.875 C 101.618 76.875,100.625 77.156,100.625 77.500 C 100.625 77.844,99.772 78.125,98.730 78.125 C 97.623 78.125,96.686 78.514,96.476 79.063 C 96.278 79.578,95.443 80.000,94.621 80.000 C 93.798 80.000,93.125 80.281,93.125 80.625 C 93.125 80.969,92.716 81.250,92.216 81.250 C 91.716 81.250,90.604 81.953,89.744 82.813 C 88.885 83.672,87.922 84.375,87.604 84.375 C 86.580 84.375,80.625 90.446,80.625 91.490 C 80.625 92.046,80.248 92.500,79.788 92.500 C 79.327 92.500,78.630 93.203,78.239 94.063 C 77.847 94.922,77.240 95.625,76.888 95.625 C 76.537 95.625,76.250 96.609,76.250 97.813 C 76.250 99.993,76.259 100.000,79.107 100.000 C 81.860 100.000,83.750 99.001,83.750 97.545 C 83.750 97.176,84.056 96.875,84.431 96.875 C 84.805 96.875,86.310 95.642,87.775 94.134 C 89.240 92.627,91.043 91.201,91.782 90.967 C 92.521 90.733,93.125 90.278,93.125 89.958 C 93.125 89.637,93.547 89.375,94.063 89.375 C 94.578 89.375,95.000 89.099,95.000 88.762 C 95.000 88.425,95.703 87.972,96.563 87.757 C 97.422 87.541,98.125 87.114,98.125 86.807 C 98.125 86.501,98.989 86.250,100.045 86.250 C 101.100 86.250,102.386 85.828,102.902 85.313 C 103.417 84.797,104.663 84.375,105.670 84.375 C 106.676 84.375,107.500 84.094,107.500 83.750 C 107.500 83.406,108.883 83.125,110.573 83.125 C 112.299 83.125,113.749 82.816,113.881 82.420 C 114.024 81.991,116.493 81.590,120.168 81.398 C 123.496 81.224,126.069 80.838,125.885 80.541 C 125.702 80.243,125.990 80.000,126.526 80.000 C 127.062 80.000,127.500 80.281,127.500 80.625 C 127.500 80.971,129.141 81.250,131.173 81.250 C 133.676 81.250,135.095 81.549,135.625 82.188 C 136.168 82.842,137.608 83.125,140.389 83.125 L 144.375 83.125 144.375 80.893 C 144.375 78.411,143.223 76.875,141.362 76.875 C 140.686 76.875,139.972 76.453,139.774 75.938 C 139.576 75.422,138.860 75.000,138.182 75.000 C 137.503 75.000,136.775 74.719,136.563 74.375 C 136.058 73.559,113.763 73.559,112.500 74.375 M265.768 76.563 C 265.886 77.990,266.153 78.125,268.842 78.125 C 270.625 78.125,272.155 78.495,272.723 79.063 C 273.239 79.578,274.665 80.000,275.893 80.000 C 277.121 80.000,278.125 80.281,278.125 80.625 C 278.125 80.969,278.828 81.250,279.688 81.250 C 280.660 81.250,281.250 81.604,281.250 82.188 C 281.250 82.771,281.840 83.125,282.813 83.125 C 283.672 83.125,284.375 83.406,284.375 83.750 C 284.375 84.094,284.828 84.375,285.381 84.375 C 286.483 84.375,291.875 89.541,291.875 90.595 C 291.875 90.955,292.151 91.250,292.488 91.250 C 292.825 91.250,293.281 91.968,293.502 92.846 C 293.798 94.025,294.250 94.392,295.232 94.252 C 296.861 94.020,297.435 91.426,295.981 90.868 C 295.442 90.661,295.000 89.818,295.000 88.996 C 295.000 88.058,294.637 87.500,294.026 87.500 C 293.490 87.500,293.225 87.219,293.438 86.875 C 293.650 86.531,293.385 86.250,292.849 86.250 C 292.313 86.250,291.875 85.828,291.875 85.313 C 291.875 84.797,291.574 84.375,291.205 84.375 C 290.340 84.375,288.750 82.785,288.750 81.920 C 288.750 81.551,288.047 81.250,287.188 81.250 C 286.328 81.250,285.625 80.969,285.625 80.625 C 285.625 80.281,285.054 80.000,284.355 80.000 C 283.657 80.000,282.924 79.578,282.726 79.063 C 282.528 78.547,281.693 78.125,280.871 78.125 C 280.048 78.125,279.375 77.844,279.375 77.500 C 279.375 77.156,278.089 76.875,276.518 76.875 C 274.812 76.875,273.283 76.497,272.723 75.938 C 270.976 74.190,265.612 74.672,265.768 76.563 M231.894 82.344 C 231.884 82.773,231.557 83.125,231.168 83.125 C 230.778 83.125,229.565 84.074,228.472 85.233 C 227.378 86.393,225.868 87.537,225.117 87.775 C 224.365 88.014,223.750 88.472,223.750 88.792 C 223.750 89.113,223.328 89.375,222.813 89.375 C 222.297 89.375,221.875 89.813,221.875 90.349 C 221.875 90.885,221.594 91.150,221.250 90.938 C 220.906 90.725,220.625 90.990,220.625 91.526 C 220.625 92.148,220.061 92.500,219.063 92.500 C 218.173 92.500,217.500 92.861,217.500 93.337 C 217.500 93.798,216.375 94.546,215.000 95.000 C 213.625 95.454,212.500 96.061,212.500 96.350 C 212.500 96.639,211.938 96.875,211.250 96.875 C 210.556 96.875,210.000 97.292,210.000 97.813 C 210.000 98.396,209.410 98.750,208.438 98.750 C 207.578 98.750,206.875 99.031,206.875 99.375 C 206.875 99.719,206.202 100.000,205.379 100.000 C 204.557 100.000,203.722 100.422,203.524 100.938 C 203.326 101.453,202.452 101.875,201.582 101.875 C 200.712 101.875,200.000 102.156,200.000 102.500 C 200.000 102.844,199.317 103.125,198.482 103.125 C 197.647 103.125,196.542 103.547,196.027 104.063 C 195.511 104.578,194.507 105.000,193.795 105.000 C 193.083 105.000,192.500 105.281,192.500 105.625 C 192.500 105.969,191.214 106.250,189.643 106.250 C 187.937 106.250,186.408 106.628,185.848 107.188 C 184.668 108.368,182.550 108.359,180.974 107.168 C 180.307 106.663,179.112 106.250,178.318 106.250 C 177.524 106.250,176.875 105.969,176.875 105.625 C 176.875 105.281,176.369 105.000,175.750 105.000 C 175.131 105.000,174.252 104.648,173.797 104.219 C 173.134 103.594,172.911 103.594,172.682 104.219 C 172.525 104.648,171.997 105.000,171.510 105.000 C 170.327 105.000,170.363 107.774,171.563 108.973 C 172.078 109.489,172.500 110.212,172.500 110.580 C 172.500 110.949,172.969 111.250,173.542 111.250 C 174.115 111.250,174.391 111.442,174.156 111.677 C 173.342 112.491,177.813 113.813,182.489 114.140 C 188.011 114.526,198.750 112.984,198.750 111.804 C 198.750 111.499,199.704 111.250,200.871 111.250 C 202.179 111.250,203.129 110.891,203.351 110.313 C 203.549 109.797,204.423 109.375,205.293 109.375 C 206.163 109.375,206.875 109.094,206.875 108.750 C 206.875 108.406,207.578 108.125,208.438 108.125 C 209.436 108.125,210.000 107.773,210.000 107.151 C 210.000 106.615,210.259 106.336,210.575 106.531 C 210.891 106.727,211.574 106.462,212.092 105.943 C 212.611 105.424,213.618 105.000,214.330 105.000 C 215.064 105.000,215.625 104.594,215.625 104.063 C 215.625 103.547,216.047 103.125,216.563 103.125 C 217.078 103.125,217.500 102.844,217.500 102.500 C 217.500 102.156,218.023 101.875,218.662 101.875 C 219.302 101.875,220.353 101.172,220.998 100.313 C 221.644 99.453,222.527 98.750,222.961 98.750 C 223.395 98.750,223.750 98.328,223.750 97.813 C 223.750 97.283,224.310 96.875,225.037 96.875 C 225.745 96.875,226.175 96.635,225.994 96.341 C 225.813 96.048,226.359 95.491,227.207 95.105 C 228.056 94.718,228.750 94.153,228.750 93.849 C 228.750 93.544,229.491 92.554,230.398 91.648 C 231.304 90.741,231.857 90.000,231.626 90.000 C 231.395 90.000,231.552 89.367,231.974 88.594 C 232.957 86.793,233.209 83.776,232.480 82.531 C 232.120 81.916,231.906 81.848,231.894 82.344 M318.542 87.917 C 317.786 88.672,318.108 90.485,319.063 90.851 C 319.578 91.049,320.000 91.574,320.000 92.018 C 320.000 92.462,320.703 93.584,321.563 94.510 C 322.685 95.721,323.125 96.896,323.125 98.681 C 323.125 101.305,324.338 102.330,326.474 101.510 C 327.575 101.087,327.914 98.750,326.875 98.750 C 326.531 98.750,326.250 97.789,326.250 96.615 C 326.250 95.440,325.956 94.381,325.597 94.262 C 325.238 94.142,324.897 93.415,324.839 92.647 C 324.781 91.879,324.372 91.250,323.929 91.250 C 323.487 91.250,323.125 90.828,323.125 90.313 C 323.125 89.797,322.824 89.375,322.455 89.375 C 322.087 89.375,321.364 88.953,320.848 88.438 C 319.827 87.416,319.187 87.272,318.542 87.917 M312.500 102.147 C 312.500 102.296,312.794 103.192,313.153 104.137 C 313.677 105.514,313.615 105.963,312.841 106.397 C 311.607 107.087,311.588 109.131,312.813 109.601 C 313.328 109.799,313.750 110.412,313.750 110.963 C 313.750 111.513,314.152 112.366,314.643 112.857 C 315.652 113.867,320.000 114.084,320.000 113.125 C 320.000 112.781,320.703 112.500,321.563 112.500 C 322.422 112.500,323.125 112.249,323.125 111.943 C 323.125 111.636,323.828 111.209,324.688 110.993 C 329.045 109.900,321.332 101.875,315.924 101.875 C 314.041 101.875,312.500 101.997,312.500 102.147 M318.125 104.063 C 318.125 104.578,318.547 105.000,319.063 105.000 C 319.646 105.000,320.000 105.590,320.000 106.563 C 320.000 107.813,320.313 108.125,321.563 108.125 C 322.422 108.125,323.125 108.406,323.125 108.750 C 323.125 109.094,322.442 109.375,321.607 109.375 C 320.772 109.375,319.667 109.797,319.152 110.313 C 317.970 111.494,316.875 111.519,316.875 110.365 C 316.875 109.878,316.523 109.352,316.094 109.196 C 315.469 108.970,315.469 108.649,316.094 107.590 C 316.523 106.862,316.875 105.560,316.875 104.696 C 316.875 103.832,317.156 103.125,317.500 103.125 C 317.844 103.125,318.125 103.547,318.125 104.063 M81.541 123.583 C 79.834 125.472,77.945 127.547,77.344 128.196 C 76.742 128.844,76.250 129.749,76.250 130.207 C 76.250 130.664,75.568 131.404,74.735 131.849 C 73.902 132.295,73.053 133.327,72.848 134.143 C 72.644 134.958,72.200 135.625,71.863 135.625 C 71.526 135.625,71.250 136.047,71.250 136.563 C 71.250 137.078,70.969 137.500,70.625 137.500 C 70.281 137.500,70.000 137.793,70.000 138.151 C 70.000 138.759,69.533 139.439,67.705 141.491 C 67.302 141.943,66.880 142.844,66.768 143.492 C 66.655 144.140,65.930 145.270,65.156 146.001 C 64.383 146.732,63.750 147.931,63.750 148.665 C 63.750 149.435,63.353 150.000,62.813 150.000 C 62.292 150.000,61.875 150.556,61.875 151.250 C 61.875 151.938,61.594 152.500,61.250 152.500 C 60.906 152.500,60.625 153.173,60.625 153.996 C 60.625 154.818,60.203 155.653,59.688 155.851 C 59.172 156.049,58.750 156.923,58.750 157.793 C 58.750 158.663,58.469 159.375,58.125 159.375 C 57.781 159.375,57.500 160.078,57.500 160.938 C 57.500 161.797,57.219 162.500,56.875 162.500 C 56.531 162.500,56.250 163.183,56.250 164.018 C 56.250 164.853,55.828 165.958,55.313 166.473 C 54.797 166.989,54.375 167.993,54.375 168.705 C 54.375 169.417,54.094 170.000,53.750 170.000 C 53.406 170.000,53.125 170.993,53.125 172.207 C 53.125 173.592,52.776 174.548,52.188 174.774 C 51.609 174.996,51.250 175.946,51.250 177.254 C 51.250 178.421,50.969 179.375,50.625 179.375 C 50.281 179.375,50.000 180.480,50.000 181.830 C 50.000 183.181,49.578 184.708,49.063 185.223 C 48.437 185.849,48.125 187.412,48.125 189.918 C 48.125 191.985,47.844 193.850,47.500 194.063 C 47.138 194.287,46.875 197.715,46.875 202.224 C 46.875 206.991,47.117 210.000,47.500 210.000 C 47.844 210.000,48.125 211.125,48.125 212.500 C 48.125 214.306,48.385 215.000,49.063 215.000 C 49.578 215.000,50.000 215.451,50.000 216.003 C 50.000 216.806,50.295 216.723,51.476 215.585 C 52.874 214.240,53.081 211.875,51.802 211.875 C 50.975 211.875,51.118 200.382,51.955 199.545 C 52.343 199.157,52.803 196.851,52.977 194.420 C 53.151 191.989,53.536 190.000,53.834 190.000 C 54.132 190.000,54.375 188.764,54.375 187.254 C 54.375 185.390,54.676 184.393,55.313 184.149 C 55.901 183.923,56.250 182.967,56.250 181.582 C 56.250 180.368,56.531 179.375,56.875 179.375 C 57.219 179.375,57.500 178.250,57.500 176.875 C 57.500 175.500,57.781 174.375,58.125 174.375 C 58.469 174.375,58.750 173.522,58.750 172.480 C 58.750 171.373,59.139 170.436,59.688 170.226 C 60.203 170.028,60.625 169.193,60.625 168.371 C 60.625 167.548,60.906 166.875,61.250 166.875 C 61.594 166.875,61.875 166.192,61.875 165.357 C 61.875 164.522,62.297 163.417,62.813 162.902 C 63.328 162.386,63.750 161.405,63.750 160.722 C 63.750 160.038,64.044 159.381,64.403 159.262 C 64.762 159.142,65.103 158.415,65.161 157.647 C 65.219 156.879,65.628 156.250,66.071 156.250 C 66.513 156.250,66.875 155.676,66.875 154.974 C 66.875 154.272,67.448 153.082,68.149 152.330 C 68.850 151.578,69.584 150.324,69.779 149.544 C 69.975 148.763,70.386 148.125,70.693 148.125 C 70.999 148.125,71.250 147.554,71.250 146.855 C 71.250 146.157,71.672 145.424,72.188 145.226 C 72.703 145.028,73.125 144.474,73.125 143.996 C 73.125 143.517,73.406 143.125,73.750 143.125 C 74.094 143.125,74.375 142.563,74.375 141.875 C 74.375 141.181,74.792 140.625,75.313 140.625 C 75.896 140.625,76.250 140.035,76.250 139.063 C 76.250 138.203,76.536 137.500,76.885 137.500 C 77.234 137.500,78.008 136.445,78.604 135.156 C 79.200 133.867,80.320 132.167,81.094 131.378 C 81.867 130.589,82.500 129.601,82.500 129.182 C 82.500 128.764,83.203 127.894,84.063 127.248 C 84.922 126.603,85.625 125.676,85.625 125.188 C 85.625 124.700,85.865 124.450,86.158 124.631 C 86.452 124.812,86.663 123.942,86.627 122.697 C 86.532 119.369,85.130 119.613,81.541 123.583 M206.875 124.375 C 206.875 124.719,206.453 125.000,205.938 125.000 C 205.422 125.000,205.000 125.262,205.000 125.583 C 205.000 125.903,204.503 126.324,203.895 126.516 C 203.288 126.709,202.098 128.134,201.252 129.683 C 200.406 131.233,199.497 132.500,199.232 132.500 C 198.967 132.500,198.750 133.484,198.750 134.688 C 198.750 135.891,199.031 136.875,199.375 136.875 C 199.719 136.875,200.000 137.156,200.000 137.500 C 200.000 137.844,200.563 138.688,201.250 139.375 C 201.938 140.063,202.781 140.625,203.125 140.625 C 203.469 140.625,203.750 140.906,203.750 141.250 C 203.750 141.636,206.979 141.875,212.188 141.875 C 217.396 141.875,220.625 141.636,220.625 141.250 C 220.625 140.906,221.459 140.625,222.478 140.625 C 224.314 140.625,228.125 137.687,228.125 136.271 C 228.125 135.869,225.761 135.625,221.875 135.625 C 215.108 135.625,215.170 135.650,216.592 133.481 C 217.761 131.695,217.651 126.875,216.440 126.875 C 215.992 126.875,215.625 126.453,215.625 125.938 C 215.625 125.417,215.069 125.000,214.375 125.000 C 213.688 125.000,213.125 124.719,213.125 124.375 C 213.125 124.031,211.719 123.750,210.000 123.750 C 208.281 123.750,206.875 124.031,206.875 124.375 M114.531 135.386 C 113.070 136.908,111.875 138.308,111.875 138.497 C 111.875 139.098,110.114 140.625,109.420 140.625 C 109.051 140.625,108.750 141.328,108.750 142.188 C 108.750 143.047,108.469 143.750,108.125 143.750 C 107.781 143.750,107.500 144.875,107.500 146.250 C 107.500 147.625,107.781 148.750,108.125 148.750 C 108.469 148.750,108.750 149.265,108.750 149.894 C 108.750 150.524,109.453 151.415,110.313 151.875 C 111.172 152.335,111.875 153.086,111.875 153.543 C 111.875 154.001,112.297 154.375,112.813 154.375 C 113.328 154.375,113.750 154.651,113.750 154.988 C 113.750 155.325,114.453 155.778,115.313 155.993 C 116.172 156.209,116.875 156.636,116.875 156.943 C 116.875 157.249,119.266 157.500,122.188 157.500 C 125.313 157.500,127.500 157.243,127.500 156.875 C 127.500 156.531,127.898 156.250,128.384 156.250 C 128.870 156.250,130.252 155.294,131.456 154.125 L 133.645 151.999 131.445 151.743 C 130.009 151.575,129.136 151.771,128.931 152.305 C 128.559 153.274,123.297 153.419,121.875 152.500 C 121.250 152.096,121.198 151.891,121.719 151.885 C 122.148 151.879,122.500 151.453,122.500 150.938 C 122.500 150.422,122.922 150.000,123.438 150.000 C 124.221 150.000,124.375 148.715,124.375 142.188 C 124.375 135.660,124.221 134.375,123.438 134.375 C 122.922 134.375,122.500 133.953,122.500 133.438 C 122.500 131.161,117.386 132.411,114.531 135.386 M344.219 152.689 C 342.930 153.050,341.875 153.577,341.875 153.860 C 341.875 154.143,341.325 154.375,340.653 154.375 C 336.622 154.375,330.913 163.502,333.393 165.982 C 335.177 167.766,338.750 166.521,338.750 164.114 C 338.750 162.718,340.708 160.625,342.014 160.625 C 342.625 160.625,343.125 160.344,343.125 160.000 C 343.125 159.656,344.056 159.375,345.193 159.375 C 346.330 159.375,347.807 158.962,348.474 158.457 C 349.832 157.431,355.625 157.156,355.625 158.118 C 355.625 158.457,356.745 158.914,358.114 159.133 C 359.482 159.352,360.450 159.777,360.264 160.078 C 360.078 160.379,360.607 160.625,361.438 160.625 C 362.321 160.625,363.438 161.275,364.123 162.188 C 364.769 163.047,365.605 163.750,365.982 163.750 C 366.804 163.750,371.250 168.095,371.250 168.899 C 371.250 169.679,372.890 171.250,373.705 171.250 C 374.074 171.250,374.375 171.953,374.375 172.813 C 374.375 173.672,374.626 174.375,374.932 174.375 C 375.239 174.375,375.666 175.078,375.882 175.938 C 376.097 176.797,376.550 177.500,376.887 177.500 C 377.224 177.500,377.500 178.625,377.500 180.000 C 377.500 181.375,377.781 182.500,378.125 182.500 C 378.498 182.500,378.750 184.896,378.750 188.438 C 378.750 191.979,378.498 194.375,378.125 194.375 C 377.781 194.375,377.500 195.470,377.500 196.808 C 377.500 198.394,377.174 199.366,376.563 199.601 C 376.047 199.799,375.625 200.532,375.625 201.230 C 375.625 201.929,375.344 202.500,375.000 202.500 C 374.656 202.500,374.375 203.173,374.375 203.996 C 374.375 204.818,373.953 205.653,373.438 205.851 C 372.922 206.049,372.500 206.647,372.500 207.179 C 372.500 207.712,370.813 209.825,368.750 211.875 C 366.688 213.925,365.000 215.768,365.000 215.971 C 365.000 216.593,363.254 218.125,362.545 218.125 C 362.176 218.125,361.875 218.401,361.875 218.738 C 361.875 219.075,361.172 219.528,360.313 219.743 C 359.453 219.959,358.750 220.386,358.750 220.693 C 358.750 220.999,358.047 221.250,357.188 221.250 C 356.215 221.250,355.625 221.604,355.625 222.188 C 355.625 222.817,354.996 223.125,353.713 223.125 C 352.598 223.125,351.962 223.385,352.188 223.750 C 352.417 224.121,351.695 224.375,350.416 224.375 C 349.075 224.375,348.123 224.730,347.899 225.313 C 347.634 226.002,346.544 226.250,343.770 226.250 C 340.417 226.250,340.000 226.388,340.000 227.500 C 340.000 228.188,340.301 228.750,340.670 228.750 C 341.038 228.750,341.761 229.172,342.277 229.688 C 343.609 231.020,353.891 231.020,355.223 229.688 C 355.739 229.172,356.727 228.750,357.418 228.750 C 358.110 228.750,358.850 228.469,359.063 228.125 C 359.275 227.781,360.152 227.500,361.011 227.500 C 361.894 227.500,362.406 227.228,362.188 226.875 C 361.970 226.523,362.471 226.250,363.334 226.250 C 364.177 226.250,365.028 225.828,365.226 225.313 C 365.424 224.797,366.016 224.375,366.543 224.375 C 367.069 224.375,367.500 224.094,367.500 223.750 C 367.500 223.406,367.922 223.125,368.438 223.125 C 368.953 223.125,369.375 222.703,369.375 222.188 C 369.375 221.672,369.676 221.250,370.045 221.250 C 370.910 221.250,372.500 219.660,372.500 218.795 C 372.500 218.426,372.801 218.125,373.170 218.125 C 374.035 218.125,375.625 216.535,375.625 215.670 C 375.625 215.301,376.047 215.000,376.563 215.000 C 377.103 215.000,377.500 214.435,377.500 213.665 C 377.500 212.931,378.203 211.679,379.063 210.883 C 379.922 210.086,380.625 208.999,380.625 208.467 C 380.625 207.935,380.876 207.500,381.182 207.500 C 381.489 207.500,381.916 206.797,382.132 205.938 C 382.347 205.078,382.800 204.375,383.137 204.375 C 383.474 204.375,383.750 203.447,383.750 202.313 C 383.750 201.178,384.011 199.983,384.331 199.656 C 386.321 197.621,386.324 178.313,384.335 177.604 C 384.013 177.490,383.750 176.435,383.750 175.260 C 383.750 174.086,383.474 173.125,383.137 173.125 C 382.800 173.125,382.347 172.422,382.132 171.563 C 381.916 170.703,381.489 170.000,381.182 170.000 C 380.876 170.000,380.625 169.707,380.625 169.349 C 380.625 168.736,380.136 168.029,378.281 165.960 C 377.852 165.481,377.500 164.788,377.500 164.420 C 377.500 164.051,377.199 163.750,376.830 163.750 C 375.965 163.750,374.375 162.160,374.375 161.295 C 374.375 160.926,374.074 160.625,373.705 160.625 C 372.840 160.625,371.250 159.035,371.250 158.170 C 371.250 157.801,370.828 157.500,370.313 157.500 C 369.797 157.500,369.375 157.219,369.375 156.875 C 369.375 156.531,368.804 156.250,368.105 156.250 C 367.407 156.250,366.674 155.828,366.476 155.313 C 366.278 154.797,365.584 154.375,364.933 154.375 C 364.282 154.375,363.750 154.158,363.750 153.892 C 363.750 152.194,349.189 151.298,344.219 152.689 M143.882 158.461 C 143.438 158.964,142.226 159.375,141.188 159.375 C 140.089 159.375,139.463 159.636,139.688 160.000 C 139.912 160.363,139.300 160.625,138.229 160.625 C 137.165 160.625,136.231 161.022,136.024 161.563 C 135.826 162.078,135.234 162.500,134.707 162.500 C 134.181 162.500,133.750 162.781,133.750 163.125 C 133.750 163.469,133.047 163.750,132.188 163.750 C 131.215 163.750,130.625 164.104,130.625 164.688 C 130.625 165.203,130.203 165.625,129.688 165.625 C 129.172 165.625,128.750 165.906,128.750 166.250 C 128.750 166.594,128.315 166.875,127.783 166.875 C 127.251 166.875,126.164 167.578,125.367 168.438 C 124.571 169.297,123.720 170.000,123.477 170.000 C 122.797 170.000,121.250 171.705,121.250 172.455 C 121.250 172.824,120.949 173.125,120.580 173.125 C 119.504 173.125,118.364 174.562,117.463 177.054 C 117.002 178.331,116.259 179.375,115.812 179.375 C 115.365 179.375,115.000 180.055,115.000 180.885 C 115.000 181.716,114.683 182.502,114.295 182.631 C 113.253 182.978,113.181 195.746,114.219 196.093 C 114.648 196.237,115.000 197.034,115.000 197.865 C 115.000 198.791,115.363 199.375,115.938 199.375 C 116.453 199.375,116.875 199.735,116.875 200.175 C 116.875 200.614,117.472 201.388,118.202 201.893 C 118.931 202.399,119.895 203.164,120.344 203.594 C 120.793 204.023,121.760 204.375,122.492 204.375 C 123.225 204.375,123.650 204.656,123.438 205.000 C 123.201 205.383,124.335 205.657,126.369 205.709 C 132.955 205.874,137.817 205.570,138.021 204.978 C 138.135 204.646,139.210 204.375,140.409 204.375 C 141.608 204.375,143.011 203.953,143.527 203.438 C 144.042 202.922,145.147 202.500,145.982 202.500 C 146.817 202.500,147.500 202.219,147.500 201.875 C 147.500 201.531,148.173 201.250,148.996 201.250 C 149.818 201.250,150.653 200.828,150.851 200.313 C 151.049 199.797,151.782 199.375,152.480 199.375 C 153.179 199.375,153.750 199.094,153.750 198.750 C 153.750 198.406,154.453 198.125,155.313 198.125 C 156.285 198.125,156.875 197.771,156.875 197.188 C 156.875 196.604,157.465 196.250,158.438 196.250 C 159.297 196.250,160.000 195.969,160.000 195.625 C 160.000 195.281,160.523 195.000,161.162 195.000 C 161.802 195.000,162.853 194.297,163.498 193.438 C 164.144 192.578,165.027 191.875,165.461 191.875 C 165.895 191.875,166.250 191.453,166.250 190.938 C 166.250 190.422,166.531 190.000,166.875 190.000 C 167.219 190.000,167.500 189.719,167.500 189.375 C 167.500 189.031,166.516 188.750,165.313 188.750 C 164.109 188.750,163.125 189.031,163.125 189.375 C 163.125 189.719,162.452 190.000,161.629 190.000 C 160.807 190.000,159.972 190.422,159.774 190.938 C 159.564 191.486,158.627 191.875,157.520 191.875 C 156.478 191.875,155.625 192.156,155.625 192.500 C 155.625 192.844,154.952 193.125,154.129 193.125 C 153.307 193.125,152.472 193.547,152.274 194.063 C 152.076 194.578,151.202 195.000,150.332 195.000 C 149.462 195.000,148.750 195.281,148.750 195.625 C 148.750 195.969,147.766 196.250,146.563 196.250 C 145.035 196.250,144.375 196.533,144.375 197.188 C 144.375 197.861,143.686 198.125,141.927 198.125 C 140.581 198.125,139.381 198.420,139.261 198.781 C 138.951 199.709,126.063 199.753,125.755 198.827 C 125.626 198.441,124.841 198.125,124.010 198.125 C 123.180 198.125,122.500 197.770,122.500 197.336 C 122.500 196.902,121.797 196.019,120.938 195.373 C 119.030 193.941,118.537 186.080,120.313 185.399 C 120.828 185.201,121.250 184.468,121.250 183.770 C 121.250 183.071,121.531 182.500,121.875 182.500 C 122.219 182.500,122.500 181.797,122.500 180.938 C 122.500 179.965,122.854 179.375,123.438 179.375 C 123.953 179.375,124.375 179.074,124.375 178.705 C 124.375 177.840,125.965 176.250,126.830 176.250 C 127.199 176.250,127.500 175.949,127.500 175.580 C 127.500 174.715,129.090 173.125,129.955 173.125 C 130.324 173.125,130.625 172.703,130.625 172.188 C 130.625 171.604,131.215 171.250,132.188 171.250 C 133.047 171.250,133.750 170.969,133.750 170.625 C 133.750 170.281,134.188 170.000,134.724 170.000 C 135.260 170.000,135.525 169.719,135.313 169.375 C 135.093 169.021,135.619 168.750,136.526 168.750 C 137.531 168.750,138.125 168.402,138.125 167.813 C 138.125 167.229,138.715 166.875,139.688 166.875 C 140.547 166.875,141.250 166.624,141.250 166.318 C 141.250 166.011,141.953 165.584,142.813 165.368 C 143.672 165.153,144.375 164.700,144.375 164.363 C 144.375 164.026,145.500 163.750,146.875 163.750 C 148.681 163.750,149.375 164.010,149.375 164.688 C 149.375 165.342,150.035 165.625,151.563 165.625 C 153.090 165.625,153.750 165.342,153.750 164.688 C 153.750 164.172,154.031 163.750,154.375 163.750 C 155.559 163.750,154.997 160.686,153.522 159.095 C 151.766 157.200,145.365 156.779,143.882 158.461 M347.813 166.250 C 348.032 166.604,347.506 166.875,346.599 166.875 C 345.594 166.875,345.000 167.223,345.000 167.813 C 345.000 168.328,344.578 168.750,344.063 168.750 C 343.542 168.750,343.125 169.306,343.125 170.000 C 343.125 171.174,343.542 171.250,350.020 171.250 C 355.572 171.250,356.984 171.433,357.274 172.188 C 357.472 172.703,358.166 173.125,358.817 173.125 C 359.468 173.125,360.000 173.406,360.000 173.750 C 360.000 174.094,360.422 174.375,360.938 174.375 C 361.453 174.375,361.875 174.797,361.875 175.313 C 361.875 175.828,362.151 176.250,362.488 176.250 C 362.825 176.250,363.278 176.953,363.493 177.813 C 363.709 178.672,364.136 179.375,364.443 179.375 C 364.749 179.375,365.000 180.078,365.000 180.938 C 365.000 181.797,365.310 182.500,365.688 182.500 C 366.133 182.500,366.258 183.437,366.041 185.156 C 365.484 189.570,364.888 191.875,364.304 191.875 C 363.999 191.875,363.750 192.578,363.750 193.438 C 363.750 194.297,363.469 195.000,363.125 195.000 C 362.781 195.000,362.500 195.281,362.500 195.625 C 362.500 196.647,365.511 196.335,366.868 195.174 C 367.559 194.582,368.125 193.597,368.125 192.986 C 368.125 192.375,368.406 191.875,368.750 191.875 C 369.094 191.875,369.375 191.172,369.375 190.313 C 369.375 189.340,369.729 188.750,370.313 188.750 C 371.049 188.750,371.250 187.887,371.250 184.732 C 371.250 181.994,370.951 180.416,370.313 179.777 C 369.797 179.261,369.375 178.257,369.375 177.545 C 369.375 176.833,369.124 176.250,368.818 176.250 C 368.511 176.250,368.084 175.547,367.868 174.688 C 367.653 173.828,367.200 173.125,366.863 173.125 C 366.526 173.125,366.250 172.824,366.250 172.455 C 366.250 171.590,364.660 170.000,363.795 170.000 C 363.426 170.000,363.125 169.719,363.125 169.375 C 363.125 169.031,362.554 168.750,361.855 168.750 C 361.157 168.750,360.424 168.328,360.226 167.813 C 360.004 167.234,359.054 166.875,357.746 166.875 C 356.579 166.875,355.625 166.594,355.625 166.250 C 355.625 165.897,353.842 165.625,351.526 165.625 C 348.952 165.625,347.570 165.858,347.813 166.250 M310.625 167.526 C 310.625 167.799,310.454 168.468,310.246 169.011 C 309.997 169.660,310.212 170.000,310.871 170.000 C 311.423 170.000,311.875 170.281,311.875 170.625 C 311.875 170.969,312.297 171.250,312.813 171.250 C 313.328 171.250,313.750 171.561,313.750 171.940 C 313.750 172.320,315.407 174.251,317.432 176.233 C 319.457 178.214,321.304 180.435,321.536 181.168 C 321.769 181.900,322.222 182.500,322.542 182.500 C 322.863 182.500,323.125 183.203,323.125 184.063 C 323.125 185.476,323.370 185.625,325.696 185.625 L 328.266 185.625 328.012 181.137 C 327.857 178.388,327.466 176.551,327.004 176.397 C 326.589 176.259,326.250 175.466,326.250 174.635 C 326.250 173.805,325.999 173.125,325.693 173.125 C 325.386 173.125,324.959 172.422,324.743 171.563 C 324.528 170.703,323.918 170.000,323.389 170.000 C 322.859 170.000,322.600 169.719,322.813 169.375 C 323.032 169.021,322.506 168.750,321.599 168.750 C 320.584 168.750,320.000 168.403,320.000 167.799 C 320.000 167.024,319.132 166.865,315.313 166.939 C 312.734 166.989,310.625 167.253,310.625 167.526 M307.729 181.554 C 307.533 182.065,307.553 183.823,307.773 185.460 C 308.492 190.799,308.036 196.250,306.872 196.250 C 306.604 196.250,306.209 196.953,305.993 197.813 C 305.778 198.672,305.325 199.375,304.988 199.375 C 304.651 199.375,304.375 199.693,304.375 200.082 C 304.375 200.472,303.391 201.718,302.188 202.853 C 299.397 205.485,299.051 208.750,301.563 208.750 C 302.422 208.750,303.125 208.469,303.125 208.125 C 303.125 207.781,303.699 207.500,304.401 207.500 C 305.593 207.500,306.190 207.151,308.415 205.156 C 308.894 204.727,309.587 204.375,309.955 204.375 C 310.324 204.375,310.625 203.953,310.625 203.438 C 310.625 202.922,310.906 202.500,311.250 202.500 C 311.594 202.500,311.875 201.929,311.875 201.230 C 311.875 200.532,312.297 199.799,312.813 199.601 C 313.328 199.403,313.750 198.709,313.750 198.058 C 313.750 197.407,313.995 196.875,314.294 196.875 C 315.134 196.875,315.741 190.831,315.275 187.104 C 315.045 185.267,314.608 183.918,314.304 184.106 C 313.999 184.295,313.750 184.154,313.750 183.794 C 313.750 181.358,308.547 179.422,307.729 181.554 M259.271 183.086 C 259.156 183.408,255.898 183.869,252.031 184.112 C 248.164 184.354,245.000 184.794,245.000 185.089 C 245.000 185.384,243.433 185.625,241.518 185.625 C 239.256 185.625,237.707 185.954,237.098 186.563 C 236.583 187.078,235.337 187.500,234.330 187.500 C 233.324 187.500,232.500 187.781,232.500 188.125 C 232.500 188.469,231.673 188.750,230.662 188.750 C 229.651 188.750,228.650 189.031,228.438 189.375 C 228.225 189.719,227.497 190.000,226.818 190.000 C 226.140 190.000,225.424 190.422,225.226 190.938 C 225.028 191.453,224.322 191.875,223.656 191.875 C 222.990 191.875,221.687 192.578,220.760 193.438 C 219.834 194.297,218.721 195.000,218.288 195.000 C 217.854 195.000,217.500 195.281,217.500 195.625 C 217.500 195.969,217.078 196.250,216.563 196.250 C 216.047 196.250,215.625 196.688,215.625 197.224 C 215.625 197.760,215.354 198.031,215.023 197.827 C 214.692 197.622,213.285 198.590,211.898 199.977 C 210.510 201.365,209.094 202.500,208.750 202.500 C 208.406 202.500,208.125 202.922,208.125 203.438 C 208.125 203.953,207.824 204.375,207.455 204.375 C 206.590 204.375,205.000 205.965,205.000 206.830 C 205.000 207.199,204.578 207.500,204.063 207.500 C 203.547 207.500,203.125 207.762,203.125 208.083 C 203.125 208.403,202.565 208.844,201.881 209.061 C 201.196 209.278,197.272 212.813,193.161 216.915 C 189.050 221.018,185.378 224.375,185.001 224.375 C 184.624 224.375,183.664 225.078,182.867 225.938 C 182.071 226.797,181.202 227.500,180.938 227.500 C 180.673 227.500,179.804 228.203,179.008 229.063 C 178.211 229.922,177.246 230.625,176.863 230.625 C 176.480 230.625,175.238 231.609,174.103 232.813 C 172.968 234.016,171.572 235.000,171.000 235.000 C 170.429 235.000,169.799 235.422,169.601 235.938 C 169.403 236.453,168.849 236.875,168.371 236.875 C 167.892 236.875,167.500 237.156,167.500 237.500 C 167.500 237.844,166.968 238.125,166.317 238.125 C 165.666 238.125,164.972 238.547,164.774 239.063 C 164.576 239.578,163.984 240.000,163.457 240.000 C 162.931 240.000,162.500 240.281,162.500 240.625 C 162.500 240.969,161.938 241.250,161.250 241.250 C 160.556 241.250,160.000 241.667,160.000 242.188 C 160.000 242.760,159.417 243.125,158.504 243.125 C 157.682 243.125,156.847 243.547,156.649 244.063 C 156.451 244.578,155.859 245.000,155.332 245.000 C 154.806 245.000,154.375 245.281,154.375 245.625 C 154.375 245.969,153.813 246.250,153.125 246.250 C 152.438 246.250,151.875 246.503,151.875 246.812 C 151.875 247.121,150.469 247.880,148.750 248.498 C 147.031 249.116,145.625 249.848,145.625 250.123 C 145.625 250.399,144.956 250.625,144.139 250.625 C 143.322 250.625,142.303 251.047,141.875 251.563 C 141.447 252.078,140.428 252.500,139.611 252.500 C 138.794 252.500,138.125 252.781,138.125 253.125 C 138.125 253.469,137.456 253.750,136.639 253.750 C 135.822 253.750,134.803 254.172,134.375 254.688 C 133.947 255.203,132.647 255.625,131.486 255.625 C 130.325 255.625,129.375 255.906,129.375 256.250 C 129.375 256.594,127.960 256.875,126.230 256.875 C 124.128 256.875,122.976 257.162,122.754 257.741 C 122.250 259.053,109.525 259.154,107.813 257.859 C 107.125 257.340,105.367 256.906,103.906 256.895 C 102.445 256.884,101.250 256.594,101.250 256.250 C 101.250 255.906,100.436 255.625,99.442 255.625 C 98.411 255.625,97.479 255.222,97.274 254.687 C 97.076 254.172,96.484 253.750,95.957 253.750 C 95.431 253.750,95.000 253.469,95.000 253.125 C 95.000 252.781,94.297 252.500,93.438 252.500 C 92.465 252.500,91.875 252.146,91.875 251.563 C 91.875 251.047,91.575 250.625,91.209 250.625 C 90.035 250.625,83.750 243.767,83.750 242.486 C 83.750 241.806,83.484 241.250,83.159 241.250 C 82.834 241.250,82.483 239.917,82.378 238.287 C 82.166 234.991,80.495 233.872,78.948 235.989 C 77.987 237.303,77.832 244.120,78.750 244.688 C 79.094 244.900,79.375 245.620,79.375 246.287 C 79.375 246.954,79.656 247.500,80.000 247.500 C 80.344 247.500,80.625 247.922,80.625 248.438 C 80.625 248.953,80.926 249.375,81.295 249.375 C 82.160 249.375,83.750 250.965,83.750 251.830 C 83.750 252.199,84.048 252.500,84.412 252.500 C 84.776 252.500,84.912 252.761,84.715 253.080 C 84.518 253.399,84.923 253.840,85.616 254.060 C 86.308 254.279,86.875 254.722,86.875 255.042 C 86.875 255.363,87.313 255.625,87.849 255.625 C 88.385 255.625,88.650 255.906,88.437 256.250 C 88.225 256.594,88.460 256.875,88.959 256.875 C 89.458 256.875,90.028 257.297,90.226 257.813 C 90.424 258.328,91.157 258.750,91.855 258.750 C 92.554 258.750,93.125 259.031,93.125 259.375 C 93.125 259.719,93.828 260.000,94.688 260.000 C 95.660 260.000,96.250 260.354,96.250 260.938 C 96.250 261.592,96.910 261.875,98.438 261.875 C 99.641 261.875,100.625 262.156,100.625 262.500 C 100.625 262.844,101.696 263.125,103.006 263.125 C 104.315 263.125,105.932 263.538,106.599 264.043 C 108.372 265.384,123.439 265.400,124.777 264.063 C 125.356 263.483,126.890 263.125,128.795 263.125 C 130.489 263.125,131.875 262.844,131.875 262.500 C 131.875 262.156,132.829 261.875,133.996 261.875 C 135.304 261.875,136.254 261.516,136.476 260.938 C 136.703 260.345,137.662 260.000,139.080 260.000 C 140.417 260.000,141.168 259.747,140.938 259.375 C 140.712 259.010,141.348 258.750,142.463 258.750 C 143.746 258.750,144.375 258.442,144.375 257.813 C 144.375 257.229,144.965 256.875,145.938 256.875 C 146.797 256.875,147.500 256.594,147.500 256.250 C 147.500 255.906,148.169 255.625,148.986 255.625 C 149.803 255.625,150.822 255.203,151.250 254.688 C 151.678 254.172,152.556 253.750,153.202 253.750 C 153.847 253.750,154.375 253.469,154.375 253.125 C 154.375 252.781,154.806 252.500,155.332 252.500 C 155.859 252.500,156.451 252.078,156.649 251.563 C 156.847 251.047,157.682 250.625,158.504 250.625 C 159.327 250.625,160.000 250.366,160.000 250.048 C 160.000 249.731,161.004 249.141,162.231 248.736 C 163.458 248.331,164.614 247.606,164.798 247.125 C 164.983 246.644,165.666 246.250,166.317 246.250 C 166.968 246.250,167.500 245.999,167.500 245.693 C 167.500 245.386,168.203 244.959,169.063 244.743 C 169.922 244.528,170.625 244.075,170.625 243.738 C 170.625 243.401,170.926 243.125,171.295 243.125 C 171.663 243.125,172.356 242.773,172.835 242.344 C 174.872 240.518,175.605 240.000,176.157 240.000 C 176.478 240.000,176.903 239.578,177.101 239.063 C 177.299 238.547,177.929 238.125,178.500 238.125 C 179.072 238.125,180.468 237.141,181.603 235.938 C 182.738 234.734,183.966 233.750,184.333 233.750 C 184.700 233.750,185.000 233.474,185.000 233.137 C 185.000 232.800,185.701 232.348,186.558 232.133 C 187.415 231.918,187.961 231.490,187.771 231.183 C 187.582 230.876,187.865 230.625,188.401 230.625 C 188.937 230.625,189.375 230.203,189.375 229.688 C 189.375 229.172,189.797 228.750,190.313 228.750 C 190.828 228.750,191.250 228.469,191.250 228.125 C 191.250 227.781,191.719 227.500,192.292 227.500 C 192.865 227.500,193.173 227.340,192.977 227.144 C 192.406 226.573,198.048 221.251,199.235 221.240 C 200.159 221.232,200.179 221.145,199.375 220.625 C 198.569 220.104,198.588 220.018,199.507 220.010 C 200.095 220.004,202.395 218.172,204.618 215.938 C 206.842 213.703,208.962 211.875,209.330 211.875 C 209.699 211.875,210.000 211.607,210.000 211.278 C 210.000 210.950,210.716 209.966,211.591 209.091 C 212.466 208.216,213.450 207.500,213.778 207.500 C 214.107 207.500,214.375 207.199,214.375 206.830 C 214.375 205.965,215.965 204.375,216.830 204.375 C 217.199 204.375,217.500 204.099,217.500 203.762 C 217.500 203.425,218.149 202.986,218.942 202.787 C 219.736 202.588,220.900 201.739,221.530 200.900 C 222.160 200.061,223.269 199.371,223.994 199.365 C 225.074 199.358,225.143 199.246,224.375 198.750 C 223.644 198.278,223.817 198.142,225.156 198.135 C 226.263 198.128,226.875 197.791,226.875 197.188 C 226.875 196.604,227.465 196.250,228.438 196.250 C 229.297 196.250,230.000 195.969,230.000 195.625 C 230.000 195.281,230.571 195.000,231.270 195.000 C 231.968 195.000,232.701 194.578,232.899 194.063 C 233.121 193.484,234.071 193.125,235.379 193.125 C 236.546 193.125,237.500 192.844,237.500 192.500 C 237.500 192.156,238.493 191.875,239.707 191.875 C 241.092 191.875,242.048 191.526,242.274 190.938 C 242.537 190.252,243.615 190.000,246.280 190.000 C 248.285 190.000,250.100 189.719,250.313 189.375 C 250.535 189.015,253.861 188.750,258.162 188.750 C 262.721 188.750,265.625 188.507,265.625 188.125 C 265.625 187.740,268.762 187.500,273.787 187.500 C 279.069 187.500,281.812 187.721,281.563 188.125 C 281.316 188.523,283.119 188.750,286.526 188.750 C 291.815 188.750,291.875 188.732,291.875 187.188 C 291.875 186.042,291.542 185.625,290.625 185.625 C 289.938 185.625,289.375 185.383,289.375 185.088 C 289.375 184.793,286.958 184.400,284.003 184.216 C 281.048 184.032,278.320 183.570,277.940 183.190 C 277.082 182.332,259.574 182.234,259.271 183.086 M345.000 196.425 C 345.000 197.208,345.563 198.254,346.250 198.750 C 347.574 199.704,348.093 204.375,346.875 204.375 C 346.531 204.375,346.250 204.694,346.250 205.083 C 346.250 205.472,345.644 206.316,344.904 206.958 C 344.164 207.600,343.813 208.129,344.123 208.135 C 344.434 208.140,344.306 208.386,343.839 208.682 C 343.307 209.019,343.148 209.714,343.413 210.547 C 344.142 212.845,347.554 212.322,350.186 209.510 C 352.222 207.333,352.500 206.868,352.500 205.629 C 352.500 204.894,352.810 203.713,353.190 203.004 C 353.649 202.145,353.668 201.586,353.246 201.325 C 352.898 201.110,352.517 200.091,352.400 199.060 C 352.262 197.844,351.694 196.971,350.781 196.571 C 350.008 196.231,349.375 195.739,349.375 195.477 C 349.375 195.215,348.391 195.000,347.188 195.000 C 345.327 195.000,345.000 195.213,345.000 196.425 M303.527 260.938 C 303.011 261.453,302.391 261.875,302.150 261.875 C 301.908 261.875,300.833 262.790,299.761 263.909 C 298.689 265.028,297.031 266.291,296.076 266.716 C 295.121 267.141,294.177 267.913,293.978 268.432 C 293.779 268.951,293.343 269.375,293.009 269.375 C 292.675 269.375,291.313 270.430,289.983 271.719 C 287.122 274.490,285.786 275.625,285.383 275.625 C 285.221 275.625,284.056 276.600,282.793 277.791 C 281.529 278.982,279.963 280.126,279.311 280.333 C 278.658 280.540,278.125 280.972,278.125 281.292 C 278.125 281.613,277.703 281.875,277.188 281.875 C 276.672 281.875,276.250 282.297,276.250 282.813 C 276.250 283.328,275.828 283.750,275.313 283.750 C 274.797 283.750,274.375 284.031,274.375 284.375 C 274.375 284.719,273.813 285.000,273.125 285.000 C 272.438 285.000,271.875 285.281,271.875 285.625 C 271.875 285.969,271.453 286.250,270.938 286.250 C 270.422 286.250,270.000 286.551,270.000 286.920 C 270.000 287.923,268.351 289.375,267.213 289.375 C 266.662 289.375,266.049 289.797,265.851 290.313 C 265.653 290.828,265.083 291.250,264.584 291.250 C 264.085 291.250,263.832 291.501,264.021 291.808 C 264.211 292.115,263.665 292.543,262.808 292.758 C 261.951 292.973,261.250 293.425,261.250 293.762 C 261.250 294.099,260.931 294.375,260.540 294.375 C 260.150 294.375,259.179 295.078,258.383 295.938 C 257.586 296.797,256.342 297.500,255.618 297.500 C 254.894 297.500,254.475 297.781,254.688 298.125 C 254.900 298.469,254.635 298.750,254.099 298.750 C 253.563 298.750,253.125 299.172,253.125 299.688 C 253.125 300.208,252.569 300.625,251.875 300.625 C 251.188 300.625,250.625 300.906,250.625 301.250 C 250.625 301.594,250.203 301.875,249.688 301.875 C 249.172 301.875,248.750 302.297,248.750 302.813 C 248.750 303.396,248.160 303.750,247.188 303.750 C 246.328 303.750,245.625 304.036,245.625 304.385 C 245.625 304.734,244.570 305.507,243.281 306.101 C 241.992 306.696,240.516 307.636,240.000 308.189 C 239.484 308.743,238.430 309.396,237.656 309.640 C 236.883 309.884,236.250 310.347,236.250 310.667 C 236.250 310.988,235.949 311.250,235.580 311.250 C 235.212 311.250,234.519 311.602,234.040 312.031 C 231.971 313.886,231.264 314.375,230.651 314.375 C 230.293 314.375,230.000 314.651,230.000 314.988 C 230.000 315.325,229.297 315.778,228.438 315.993 C 227.578 316.209,226.875 316.606,226.875 316.875 C 226.875 317.144,226.172 317.541,225.313 317.757 C 224.453 317.972,223.750 318.425,223.750 318.762 C 223.750 319.099,223.328 319.375,222.813 319.375 C 222.297 319.375,221.875 319.656,221.875 320.000 C 221.875 320.344,221.304 320.625,220.605 320.625 C 219.907 320.625,219.174 321.047,218.976 321.563 C 218.778 322.078,218.084 322.500,217.433 322.500 C 216.782 322.500,216.248 322.711,216.245 322.969 C 216.239 323.530,213.213 325.000,212.063 325.000 C 211.616 325.000,211.250 325.422,211.250 325.938 C 211.250 326.521,210.660 326.875,209.688 326.875 C 208.828 326.875,208.125 327.126,208.125 327.432 C 208.125 327.739,207.422 328.166,206.563 328.382 C 205.703 328.597,205.000 329.050,205.000 329.387 C 205.000 329.724,204.297 330.000,203.438 330.000 C 202.578 330.000,201.875 330.276,201.875 330.613 C 201.875 330.950,201.172 331.403,200.313 331.618 C 199.453 331.834,198.750 332.261,198.750 332.568 C 198.750 332.874,198.047 333.125,197.188 333.125 C 196.328 333.125,195.625 333.401,195.625 333.738 C 195.625 334.075,194.924 334.527,194.067 334.742 C 193.210 334.957,192.664 335.385,192.854 335.692 C 193.043 335.999,192.642 336.250,191.963 336.250 C 190.649 336.250,186.704 338.119,186.354 338.906 C 186.240 339.164,185.587 339.375,184.903 339.375 C 184.220 339.375,183.239 339.797,182.723 340.313 C 182.208 340.828,181.103 341.250,180.268 341.250 C 179.433 341.250,178.750 341.531,178.750 341.875 C 178.750 342.219,177.906 342.500,176.875 342.500 C 175.844 342.500,175.000 342.781,175.000 343.125 C 175.000 343.469,174.186 343.750,173.192 343.750 C 172.161 343.750,171.229 344.153,171.024 344.688 C 170.798 345.276,169.842 345.625,168.457 345.625 C 167.243 345.625,166.250 345.906,166.250 346.250 C 166.250 346.594,165.601 346.875,164.807 346.875 C 164.013 346.875,162.818 347.288,162.151 347.793 C 161.483 348.297,160.023 348.719,158.906 348.730 C 157.789 348.741,156.875 349.031,156.875 349.375 C 156.875 349.719,155.921 350.000,154.754 350.000 C 153.446 350.000,152.496 350.359,152.274 350.938 C 152.020 351.599,150.988 351.875,148.770 351.875 C 147.040 351.875,145.625 352.156,145.625 352.500 C 145.625 352.844,144.058 353.125,142.143 353.125 C 139.881 353.125,138.332 353.454,137.723 354.063 C 136.948 354.837,134.469 355.000,123.438 355.000 C 112.406 355.000,109.927 354.837,109.152 354.063 C 108.581 353.492,107.035 353.121,105.201 353.115 C 103.025 353.109,102.448 352.937,103.125 352.500 C 103.825 352.048,103.486 351.892,101.786 351.885 C 100.345 351.879,99.377 351.531,99.149 350.938 C 98.951 350.422,98.218 350.000,97.520 350.000 C 96.821 350.000,96.250 349.719,96.250 349.375 C 96.250 349.031,95.727 348.750,95.088 348.750 C 94.448 348.750,93.397 348.047,92.752 347.188 C 92.106 346.328,91.223 345.625,90.789 345.625 C 90.355 345.625,90.000 345.203,90.000 344.688 C 90.000 344.172,89.705 343.750,89.345 343.750 C 88.492 343.750,82.500 337.758,82.500 336.905 C 82.500 336.545,82.078 336.250,81.563 336.250 C 81.035 336.250,80.625 335.692,80.625 334.974 C 80.625 334.272,80.063 333.094,79.375 332.356 C 78.688 331.618,78.125 330.496,78.125 329.863 C 78.125 329.229,77.703 328.549,77.188 328.351 C 76.672 328.153,76.250 327.298,76.250 326.451 C 76.250 325.604,75.828 324.489,75.312 323.973 C 74.797 323.458,74.375 322.212,74.375 321.205 C 74.375 320.199,74.094 319.375,73.750 319.375 C 73.406 319.375,73.125 318.250,73.125 316.875 C 73.125 315.027,72.871 314.375,72.151 314.375 C 71.615 314.375,71.350 314.094,71.563 313.750 C 71.788 313.385,71.152 313.125,70.037 313.125 L 68.125 313.125 68.125 316.756 C 68.125 318.980,68.480 320.856,69.043 321.599 C 69.547 322.267,69.969 323.727,69.980 324.844 C 69.991 325.961,70.281 326.875,70.625 326.875 C 70.969 326.875,71.250 327.558,71.250 328.393 C 71.250 329.228,71.672 330.333,72.187 330.848 C 72.703 331.364,73.125 332.368,73.125 333.080 C 73.125 333.792,73.376 334.375,73.682 334.375 C 73.989 334.375,74.416 335.078,74.632 335.938 C 74.847 336.797,75.300 337.500,75.637 337.500 C 75.974 337.500,76.250 337.922,76.250 338.438 C 76.250 338.953,76.512 339.375,76.833 339.375 C 77.153 339.375,77.616 340.008,77.860 340.781 C 78.104 341.555,78.826 342.642,79.464 343.198 C 80.103 343.754,80.625 344.528,80.625 344.917 C 80.625 345.306,80.926 345.625,81.295 345.625 C 82.160 345.625,83.750 347.215,83.750 348.080 C 83.750 348.449,84.051 348.750,84.420 348.750 C 85.285 348.750,86.875 350.340,86.875 351.205 C 86.875 351.574,87.297 351.875,87.813 351.875 C 88.328 351.875,88.750 352.156,88.750 352.500 C 88.750 352.844,89.321 353.125,90.020 353.125 C 90.718 353.125,91.451 353.547,91.649 354.063 C 91.847 354.578,92.558 355.000,93.229 355.000 C 93.900 355.000,94.275 355.281,94.063 355.625 C 93.850 355.969,94.235 356.250,94.918 356.250 C 95.602 356.250,96.583 356.672,97.098 357.188 C 97.614 357.703,98.776 358.125,99.680 358.125 C 100.617 358.125,101.158 358.394,100.938 358.750 C 100.705 359.126,101.531 359.375,103.012 359.375 C 104.436 359.375,105.800 359.770,106.250 360.313 C 106.793 360.967,108.233 361.250,111.014 361.250 C 113.255 361.250,115.000 361.524,115.000 361.875 C 115.000 362.264,118.542 362.500,124.375 362.500 C 130.208 362.500,133.750 362.264,133.750 361.875 C 133.750 361.519,135.601 361.250,138.054 361.250 C 140.655 361.250,143.065 360.881,144.147 360.316 C 145.132 359.803,147.149 359.381,148.631 359.379 C 150.266 359.377,151.172 359.130,150.938 358.750 C 150.701 358.368,151.675 358.125,153.445 358.125 C 155.184 358.125,156.713 357.751,157.277 357.188 C 157.797 356.668,159.325 356.250,160.707 356.250 C 162.209 356.250,163.045 356.002,162.813 355.625 C 162.589 355.264,163.183 355.000,164.219 355.000 C 165.204 355.000,166.557 354.587,167.224 354.082 C 167.892 353.578,169.422 353.152,170.625 353.135 C 172.272 353.113,172.581 352.956,171.875 352.500 C 171.165 352.041,171.434 351.892,172.988 351.885 C 174.228 351.879,175.182 351.504,175.399 350.938 C 175.621 350.359,176.571 350.000,177.879 350.000 C 179.046 350.000,180.000 349.719,180.000 349.375 C 180.000 349.031,180.712 348.750,181.582 348.750 C 182.452 348.750,183.326 348.328,183.524 347.813 C 183.729 347.278,184.661 346.875,185.692 346.875 C 186.686 346.875,187.500 346.594,187.500 346.250 C 187.500 345.906,188.212 345.625,189.082 345.625 C 189.952 345.625,190.826 345.203,191.024 344.688 C 191.222 344.172,192.057 343.750,192.879 343.750 C 193.702 343.750,194.375 343.469,194.375 343.125 C 194.375 342.781,195.078 342.500,195.938 342.500 C 196.797 342.500,197.500 342.219,197.500 341.875 C 197.500 341.531,198.028 341.250,198.673 341.250 C 199.319 341.250,200.197 340.828,200.625 340.313 C 201.053 339.797,201.931 339.375,202.577 339.375 C 203.222 339.375,203.750 339.094,203.750 338.750 C 203.750 338.406,204.321 338.125,205.020 338.125 C 205.718 338.125,206.451 337.703,206.649 337.188 C 206.847 336.672,207.561 336.250,208.237 336.250 C 208.912 336.250,209.856 335.898,210.335 335.469 C 212.550 333.483,213.152 333.125,214.282 333.125 C 214.947 333.125,215.653 332.703,215.851 332.188 C 216.049 331.672,216.782 331.250,217.480 331.250 C 218.179 331.250,218.750 330.969,218.750 330.625 C 218.750 330.281,219.172 330.000,219.688 330.000 C 220.203 330.000,220.625 329.724,220.625 329.387 C 220.625 329.050,221.328 328.597,222.188 328.382 C 223.047 328.166,223.750 327.739,223.750 327.432 C 223.750 327.126,224.453 326.875,225.313 326.875 C 226.177 326.875,226.875 326.512,226.875 326.063 C 226.875 325.616,227.919 324.873,229.196 324.412 C 230.472 323.950,231.869 323.261,232.299 322.880 C 234.342 321.072,234.996 320.625,235.599 320.625 C 235.957 320.625,236.250 320.344,236.250 320.000 C 236.250 319.656,236.821 319.375,237.520 319.375 C 238.218 319.375,238.951 318.953,239.149 318.438 C 239.347 317.922,239.901 317.500,240.379 317.500 C 240.858 317.500,241.250 317.219,241.250 316.875 C 241.250 316.531,241.813 316.250,242.500 316.250 C 243.194 316.250,243.750 315.833,243.750 315.313 C 243.750 314.797,244.172 314.375,244.688 314.375 C 245.203 314.375,245.625 314.094,245.625 313.750 C 245.625 313.406,246.196 313.125,246.895 313.125 C 247.593 313.125,248.326 312.703,248.524 312.188 C 248.722 311.672,249.155 311.250,249.487 311.250 C 249.818 311.250,250.481 310.898,250.960 310.469 C 253.029 308.614,253.736 308.125,254.349 308.125 C 254.707 308.125,255.000 307.908,255.000 307.642 C 255.000 307.377,255.984 306.629,257.188 305.981 C 258.391 305.333,259.375 304.566,259.375 304.277 C 259.375 303.987,260.078 303.750,260.938 303.750 C 261.910 303.750,262.500 303.396,262.500 302.813 C 262.500 302.297,262.922 301.875,263.438 301.875 C 263.953 301.875,264.375 301.594,264.375 301.250 C 264.375 300.906,264.727 300.625,265.157 300.625 C 265.586 300.625,267.169 299.500,268.673 298.125 C 270.177 296.750,271.794 295.625,272.266 295.625 C 272.739 295.625,273.125 295.344,273.125 295.000 C 273.125 294.656,273.547 294.375,274.063 294.375 C 274.578 294.375,275.000 293.953,275.000 293.438 C 275.000 292.922,275.438 292.500,275.974 292.500 C 276.510 292.500,276.775 292.219,276.563 291.875 C 276.226 291.331,277.494 290.953,278.906 291.176 C 279.164 291.217,279.375 290.828,279.375 290.313 C 279.375 289.797,279.694 289.375,280.085 289.375 C 280.475 289.375,281.446 288.672,282.242 287.813 C 283.039 286.953,284.126 286.250,284.658 286.250 C 285.190 286.250,285.625 285.969,285.625 285.625 C 285.625 285.281,285.922 285.000,286.285 285.000 C 286.648 285.000,288.294 283.594,289.942 281.875 C 291.590 280.156,293.418 278.750,294.006 278.750 C 294.593 278.750,294.931 278.519,294.756 278.236 C 294.401 277.662,296.547 275.625,297.507 275.625 C 297.847 275.625,298.125 275.203,298.125 274.688 C 298.125 274.172,298.426 273.750,298.795 273.750 C 299.660 273.750,301.250 272.160,301.250 271.295 C 301.250 270.926,301.551 270.625,301.920 270.625 C 302.785 270.625,304.375 269.035,304.375 268.170 C 304.375 267.801,304.676 267.500,305.045 267.500 C 306.501 267.500,307.500 265.610,307.500 262.857 C 307.500 259.735,305.632 258.832,303.527 260.938 " stroke="none" fill="#000000" fill-rule="evenodd"></path></g></svg>